<?xml version="1.0" standalone="no"?>
<!DOCTYPE svg PUBLIC "-//W3C//DTD SVG 20010904//EN"
 "http://www.w3.org/TR/2001/REC-SVG-20010904/DTD/svg10.dtd">
<svg version="1.0" xmlns="http://www.w3.org/2000/svg"
 width="576.000000pt" height="576.000000pt" viewBox="0 0 576.000000 576.000000"
 preserveAspectRatio="xMidYMid meet">
<metadata>
Created by potrace 1.14, written by Peter Selinger 2001-2017
</metadata>
<g transform="translate(0.000000,576.000000) scale(0.100000,-0.100000)"
fill="#000000" stroke="none">
<path d="M1820 3946 c0 -2 7 -9 15 -16 9 -7 15 -8 15 -2 0 5 -7 12 -15 16 -8
3 -15 4 -15 2z"/>
<path d="M1866 3901 c3 -3 11 -6 17 -6 7 -1 11 -6 10 -13 -2 -7 1 -11 6 -9 5
1 10 -1 10 -5 1 -4 21 -29 46 -55 25 -27 47 -56 51 -65 3 -10 10 -18 15 -18 5
0 9 -5 9 -11 0 -7 8 -18 18 -26 11 -10 12 -12 2 -8 -10 4 -9 2 2 -8 10 -8 15
-17 11 -20 -3 -4 -1 -7 6 -7 7 0 10 -4 7 -9 -3 -5 1 -14 9 -21 8 -7 12 -16 9
-21 -3 -5 0 -9 7 -9 7 0 10 -3 6 -6 -3 -4 1 -13 9 -21 8 -8 12 -19 9 -24 -4
-5 -1 -9 6 -9 7 0 10 -3 7 -6 -4 -3 0 -20 7 -39 8 -18 11 -35 8 -39 -4 -3 -1
-6 5 -6 7 0 11 -3 10 -7 -1 -5 4 -33 10 -63 20 -85 26 -148 25 -240 -2 -82 -8
-185 -13 -185 -1 0 -3 -11 -4 -25 -2 -14 -7 -36 -11 -50 -5 -14 -10 -28 -11
-32 -1 -5 -2 -9 -4 -10 -2 -3 -8 -26 -13 -50 -2 -10 -6 -21 -10 -24 -4 -4 -7
-16 -7 -26 0 -10 -4 -18 -9 -18 -5 0 -12 -13 -16 -30 -4 -17 -11 -30 -16 -30
-6 0 -8 -4 -5 -9 3 -5 -1 -14 -9 -21 -8 -7 -12 -16 -9 -21 3 -5 0 -9 -5 -9 -6
0 -11 -5 -11 -11 0 -7 -8 -18 -17 -26 -12 -10 -13 -12 -3 -8 8 4 4 -3 -9 -14
-13 -12 -19 -21 -15 -21 5 0 0 -7 -10 -15 -11 -8 -17 -15 -13 -15 3 0 -11 -16
-31 -36 -20 -20 -37 -39 -37 -42 0 -4 -3 -6 -7 -5 -5 2 -8 -4 -8 -12 0 -8 -7
-15 -16 -15 -8 0 -13 -4 -10 -8 2 -4 -6 -8 -20 -8 -13 0 -24 3 -24 6 0 3 -8 6
-17 7 -32 2 -51 9 -67 22 -9 7 -16 10 -16 5 0 -5 -8 1 -18 13 -9 12 -24 23
-32 25 -8 2 -27 16 -42 32 -16 15 -28 25 -28 21 0 -5 -11 4 -25 19 -14 15 -25
23 -25 19 0 -4 -5 0 -11 10 -6 9 -14 15 -19 12 -4 -3 -11 2 -14 11 -3 8 -10
12 -16 9 -5 -3 -10 -2 -10 4 0 5 -15 13 -32 17 -18 4 -36 9 -40 10 -5 1 -12 2
-17 3 -14 2 -7 28 15 53 12 14 13 19 4 13 -9 -6 -6 -1 7 10 13 12 23 24 23 27
0 10 -44 -4 -64 -21 -14 -11 -17 -12 -11 -2 22 38 -53 -26 -115 -98 -28 -32
-32 -40 -29 -57 0 -4 -4 -10 -9 -13 -5 -3 -13 -19 -19 -35 -13 -41 -30 -43
-27 -4 5 59 13 100 22 112 5 6 13 22 17 36 4 14 15 31 24 38 13 11 13 12 1 7
-8 -4 -4 3 9 14 13 12 21 21 17 21 -3 0 2 9 11 20 10 11 23 20 31 20 7 0 10 4
7 10 -3 5 6 12 20 16 14 3 25 10 25 16 0 5 5 6 10 3 6 -3 10 -1 10 4 0 6 3 10
8 9 4 -1 21 5 38 15 17 9 34 13 37 10 4 -3 12 -1 19 4 16 13 208 14 208 2 0
-5 9 -9 19 -9 10 0 22 -8 26 -17 6 -17 8 -17 21 2 8 11 18 18 22 16 4 -2 12 6
18 18 6 12 20 29 30 37 11 9 12 13 4 9 -8 -4 -6 1 4 9 11 9 16 16 11 16 -5 0
-4 5 3 12 7 7 12 20 12 30 0 10 5 18 11 18 5 0 8 4 4 9 -3 6 -1 28 4 50 5 22
6 43 2 46 -3 4 -6 10 -7 13 -2 15 -23 56 -24 47 0 -5 -4 -4 -9 3 -6 11 -17 11
-45 4 -20 -6 -47 -8 -59 -6 -12 3 -33 7 -46 10 -13 3 -32 9 -43 15 -10 5 -18
7 -18 4 0 -3 -10 1 -23 10 -13 8 -27 12 -30 8 -4 -3 -7 -1 -7 5 0 7 -3 12 -7
11 -16 -2 -53 14 -53 23 0 5 -4 6 -10 3 -5 -3 -10 -1 -10 4 0 6 -3 11 -7 10
-16 -2 -53 14 -53 23 0 5 -4 7 -9 3 -5 -3 -17 2 -25 11 -9 8 -16 12 -16 9 0
-4 -20 5 -45 19 -25 13 -42 20 -38 14 3 -7 -9 -3 -28 9 -19 11 -40 18 -48 15
-8 -2 -11 0 -7 6 3 6 -1 9 -11 7 -10 -1 -22 0 -28 3 -12 8 -44 11 -110 11 -27
0 -70 0 -95 0 -94 1 -220 19 -220 33 0 5 -4 7 -9 3 -5 -3 -16 2 -24 10 -9 8
-19 15 -23 15 -11 0 -53 49 -67 78 -12 25 -14 74 -5 112 9 33 39 80 53 80 8 0
15 5 15 10 0 6 8 10 18 10 9 0 24 5 32 10 27 17 -66 3 -102 -16 -57 -29 -105
-85 -115 -134 -8 -39 -10 -111 -2 -116 4 -2 6 -11 2 -19 -3 -8 0 -15 7 -15 7
0 10 -7 6 -15 -3 -8 -1 -15 4 -15 5 0 12 -11 16 -25 3 -14 10 -22 15 -19 5 3
9 1 9 -4 0 -5 11 -21 25 -36 14 -15 25 -24 25 -20 0 4 8 -3 19 -14 10 -12 21
-19 24 -15 4 3 9 -2 13 -11 3 -9 10 -13 15 -10 5 3 9 0 9 -5 0 -6 9 -11 20
-11 11 0 20 -4 20 -8 0 -5 18 -14 40 -21 37 -11 57 -41 27 -41 -7 0 -23 -9
-35 -20 -12 -11 -25 -20 -30 -20 -5 0 -17 -10 -26 -22 -9 -13 -14 -16 -10 -8
3 8 -8 -1 -26 -20 -18 -19 -29 -28 -25 -20 3 8 -3 4 -14 -9 -12 -13 -21 -20
-21 -16 0 4 -7 2 -15 -5 -8 -7 -15 -9 -15 -5 0 4 -6 2 -13 -4 -8 -6 -17 -9
-21 -6 -3 3 -1 -1 4 -8 6 -6 14 -12 18 -12 4 -1 17 -6 30 -13 12 -7 22 -10 22
-6 0 3 6 2 13 -3 6 -5 36 -9 65 -8 29 1 56 -3 58 -7 3 -5 -6 -20 -20 -33 -14
-13 -26 -27 -26 -30 0 -3 -11 -16 -25 -29 -13 -13 -22 -26 -18 -29 3 -4 2 -7
-4 -7 -6 0 -16 -13 -22 -30 -5 -16 -15 -30 -20 -30 -6 0 -10 -3 -9 -7 1 -5
-10 -32 -25 -62 -14 -30 -24 -58 -21 -63 3 -4 1 -8 -4 -8 -5 0 -9 -6 -10 -12
-1 -15 -10 -53 -12 -53 -7 0 -13 -79 -14 -171 -1 -81 -4 -111 -13 -111 -7 0
-13 4 -13 9 0 4 -7 8 -16 8 -8 0 -13 4 -10 9 3 5 -4 11 -15 14 -12 3 -18 10
-14 16 3 6 1 11 -4 11 -6 0 -19 7 -28 16 -10 8 -27 23 -38 32 -12 9 -14 13 -5
8 8 -5 -6 11 -32 35 -27 24 -48 52 -48 61 0 9 -5 20 -12 24 -7 4 -8 3 -4 -4 4
-7 5 -12 2 -12 -3 0 -15 20 -27 45 -12 25 -25 45 -31 45 -5 0 -6 5 -3 10 3 6
1 10 -6 10 -7 0 -10 3 -6 6 3 4 -1 13 -9 21 -8 8 -11 19 -8 25 4 7 2 8 -4 4
-8 -5 -1 -28 23 -76 19 -39 35 -73 34 -76 0 -3 8 -12 18 -21 11 -9 12 -12 3
-8 -10 4 -9 2 3 -8 9 -8 17 -19 17 -26 0 -6 5 -11 11 -11 5 0 8 -4 4 -9 -3 -6
4 -15 15 -21 11 -6 19 -14 18 -18 -3 -14 14 -42 23 -36 5 3 9 0 9 -5 0 -6 27
-37 59 -68 71 -69 121 -113 121 -105 0 3 8 -5 19 -16 10 -12 22 -22 26 -22 4
0 14 -8 22 -17 10 -12 12 -13 8 -3 -4 10 -2 9 8 -2 8 -10 21 -18 30 -18 8 0
17 -4 19 -9 2 -5 10 -11 18 -13 8 -2 21 -10 28 -18 12 -13 13 -13 6 0 -6 11
-2 10 13 -3 11 -9 23 -14 26 -10 4 3 7 1 7 -6 0 -7 4 -9 10 -6 5 3 10 1 10 -5
0 -7 7 -10 15 -6 8 3 15 1 15 -4 0 -6 3 -9 8 -9 4 1 10 0 15 -1 4 -1 12 -4 17
-5 6 -1 11 -3 13 -5 3 -2 39 -10 60 -12 9 -1 17 -6 17 -11 0 -5 7 -6 16 -3 9
3 21 3 27 -1 6 -3 27 -8 46 -10 57 -7 282 -5 321 2 19 3 45 7 58 8 12 0 22 4
22 7 0 3 9 7 20 8 42 4 50 6 50 12 0 4 6 7 14 7 22 0 176 64 176 74 0 5 7 5
17 2 10 -4 14 -2 10 4 -4 6 0 14 9 17 10 4 13 2 8 -7 -4 -6 3 -3 14 8 37 36
50 44 56 38 3 -4 6 -1 6 5 0 7 4 12 9 12 5 0 24 12 42 28 49 41 176 167 159
158 -8 -5 -4 3 10 16 14 14 32 35 40 48 8 12 21 29 28 36 7 8 10 14 6 14 -4 0
1 7 12 16 10 8 12 12 4 8 -8 -4 -4 5 9 19 14 15 21 27 16 27 -4 0 -1 8 8 18
10 10 14 22 10 25 -3 4 0 7 7 7 7 0 10 3 7 7 -4 3 0 15 10 25 9 10 13 18 9 18
-3 0 0 13 8 29 9 16 12 31 9 35 -4 3 -2 6 4 6 5 0 10 6 11 13 1 15 9 52 17 78
4 11 8 32 10 47 2 15 7 45 11 67 14 85 4 297 -19 385 -16 63 -21 76 -30 88 -5
6 -7 12 -4 12 4 0 -3 21 -14 48 -12 26 -22 55 -25 66 -2 10 -11 25 -21 33 -11
9 -12 12 -3 8 10 -4 9 -2 -2 8 -10 8 -15 17 -11 20 3 4 0 7 -7 7 -7 0 -10 3
-7 7 4 3 -1 12 -11 20 -11 10 -12 12 -2 8 10 -4 9 -2 -2 8 -10 8 -15 17 -11
20 3 4 1 7 -5 7 -7 0 -12 7 -12 15 0 8 -9 19 -20 25 -11 6 -20 16 -20 22 0 6
-12 21 -27 34 -16 13 -24 24 -19 24 5 0 3 7 -4 15 -7 8 -16 12 -21 9 -5 -3 -9
3 -9 12 0 10 -3 15 -6 11 -9 -9 -44 25 -37 37 3 6 3 8 -2 4 -4 -4 -18 6 -31
21 -12 15 -30 28 -38 28 -9 0 -13 -3 -10 -6z m-597 -645 c34 -7 81 -30 81 -38
0 -5 -12 -8 -27 -8 -16 0 -36 -7 -46 -15 -20 -14 -42 -11 -68 12 -9 7 -19 10
-22 6 -4 -3 -7 -1 -7 5 0 7 -7 12 -15 12 -20 0 -19 10 2 25 16 12 48 12 102 1z
m571 -164 c0 -4 -9 -8 -20 -9 -22 -2 -27 13 -7 20 14 5 27 -1 27 -11z"/>
<path d="M1468 3618 c5 -5 16 -8 23 -6 8 3 3 7 -10 11 -17 4 -21 3 -13 -5z"/>
<path d="M1508 3598 c-3 -7 4 -25 15 -40 42 -57 18 -187 -37 -208 -13 -5 -27
-14 -32 -21 -4 -8 -3 -10 4 -5 7 4 12 3 12 -3 0 -6 7 -7 17 -4 12 5 14 3 8 -7
-6 -10 -4 -12 8 -7 8 3 21 -1 27 -8 7 -8 16 -12 21 -10 4 3 12 -2 17 -11 8
-14 12 -11 23 19 7 21 16 37 19 37 8 0 8 5 13 83 1 31 -1 57 -6 57 -4 0 -5 5
-2 10 3 6 2 10 -3 10 -6 0 -13 11 -16 25 -4 14 -11 25 -17 25 -6 0 -7 5 -4 10
3 6 1 10 -5 10 -6 0 -22 11 -35 25 -16 18 -24 22 -27 13z"/>
<path d="M2497 3393 c-5 -8 -11 -44 -22 -120 -3 -21 -7 -47 -10 -58 -2 -11 -7
-42 -11 -70 -3 -27 -8 -53 -10 -56 -2 -3 -6 -33 -9 -66 l-7 -60 109 -1 c160
-1 199 16 235 96 25 55 28 72 35 160 4 56 2 81 -11 111 -27 60 -57 71 -184 71
-61 0 -113 -3 -115 -7z m192 -89 c22 -16 23 -22 18 -83 -7 -80 -32 -147 -61
-164 -11 -6 -40 -12 -64 -14 l-43 -2 5 37 c4 20 13 83 22 140 l17 102 41 0
c23 0 52 -7 65 -16z"/>
<path d="M2958 3382 c-20 -9 -46 -29 -57 -43 -43 -56 -71 -246 -45 -307 20
-48 54 -64 142 -67 112 -3 154 20 190 104 34 77 44 218 20 269 -7 15 -29 35
-48 44 -46 24 -152 23 -202 0z m149 -83 c12 -11 14 -27 9 -86 -8 -111 -34
-159 -86 -163 -84 -7 -95 13 -75 140 10 65 31 109 57 120 28 11 74 6 95 -11z"/>
<path d="M3330 3381 c0 -10 -7 -41 -15 -67 -14 -48 -85 -336 -85 -346 0 -3 22
-5 49 -5 l49 -1 16 62 c9 33 19 74 22 90 3 16 9 38 14 50 8 19 9 18 10 -9 1
-16 3 -39 5 -50 2 -11 5 -40 6 -65 3 -69 11 -78 68 -77 56 0 50 -7 106 132
l35 90 -2 -110 -3 -110 42 -2 c23 -2 44 1 47 5 2 4 7 48 10 97 4 50 9 128 12
175 4 47 7 101 8 120 l1 35 -66 3 -67 3 -48 -121 c-46 -117 -57 -132 -60 -87
-5 80 -17 193 -21 200 -2 4 -33 7 -69 7 -56 0 -64 -2 -64 -19z"/>
<path d="M3809 3398 c-3 -10 -8 -39 -13 -78 -4 -25 -11 -70 -16 -100 -6 -30
-13 -75 -16 -100 -3 -25 -10 -63 -15 -85 -15 -68 -14 -70 40 -72 54 -2 50 -8
65 92 2 17 12 75 21 130 9 55 18 111 20 125 2 14 7 40 10 58 l5 32 -50 0 c-27
0 -50 -1 -51 -2z"/>
<path d="M3969 3378 c0 -13 -2 -30 -4 -38 -1 -8 -6 -33 -9 -55 -4 -23 -8 -50
-10 -60 -2 -11 -7 -40 -10 -65 -3 -25 -11 -72 -16 -105 -16 -95 -16 -93 37
-91 52 1 55 7 68 105 3 25 8 55 10 66 2 11 4 31 4 45 1 24 1 24 15 5 7 -11 32
-64 56 -117 24 -56 50 -99 59 -101 31 -8 80 -7 85 1 4 7 11 46 22 127 1 11 3
20 4 20 1 0 3 16 6 36 2 20 12 82 22 138 10 56 16 103 14 106 -3 3 -27 5 -53
5 l-47 0 -13 -87 c-7 -49 -14 -91 -15 -95 -1 -5 -2 -20 -3 -35 -2 -39 -12 -23
-67 104 l-49 113 -52 0 c-48 0 -53 -2 -54 -22z"/>
<path d="M4407 3185 c-59 -119 -107 -217 -107 -218 0 -2 25 -3 55 -4 l55 -1
21 49 21 49 64 0 63 0 6 -45 c8 -48 15 -53 76 -54 32 0 36 3 34 22 -3 22 -54
329 -60 357 -2 8 -4 25 -4 38 -1 20 -6 22 -59 22 l-58 0 -107 -215z m157 -2
l5 -43 -38 0 -38 0 26 55 c28 58 35 56 45 -12z"/>
<path d="M4725 3388 c-2 -7 -7 -25 -9 -40 -5 -30 -8 -29 69 -32 22 0 39 -5 39
-11 -4 -22 -14 -92 -19 -125 -3 -19 -10 -66 -16 -105 -5 -38 -12 -80 -14 -91
-5 -20 -1 -22 50 -23 31 0 54 3 51 7 -3 6 22 168 49 319 6 32 6 33 60 31 30
-1 57 1 61 4 3 4 8 23 11 42 l5 36 -166 0 c-124 0 -168 -3 -171 -12z"/>
<path d="M5153 3390 c-39 -16 -53 -46 -68 -155 -3 -22 -8 -51 -10 -65 -21
-114 -23 -142 -11 -165 18 -38 35 -42 154 -39 64 3 117 6 119 8 2 2 7 20 10
41 l6 36 -69 -1 c-131 -4 -126 -5 -120 38 3 20 5 42 6 47 0 6 35 10 84 10 l85
0 6 33 c3 19 4 36 2 38 -4 4 -73 11 -133 13 l-32 1 10 40 c6 22 13 41 17 41 3
1 46 2 96 3 l90 2 6 37 c4 24 2 37 -5 38 -133 7 -225 7 -243 -1z"/>
<path d="M2449 2860 c-1 -11 -2 -23 -3 -27 -1 -5 -6 -28 -10 -53 -5 -25 -10
-52 -11 -61 -2 -9 -6 -32 -9 -50 -3 -19 -12 -67 -19 -106 l-14 -73 108 0 107
0 12 73 c7 39 14 78 16 85 2 8 31 12 99 12 52 0 95 3 95 8 1 4 3 24 6 45 l6
37 -95 0 c-90 0 -95 1 -90 20 5 18 14 20 109 20 l104 0 5 28 c15 68 35 62
-201 62 -207 0 -214 -1 -215 -20z"/>
<path d="M3043 2860 c-31 -19 -47 -52 -57 -120 -3 -19 -7 -44 -10 -55 -2 -11
-7 -40 -11 -65 -4 -25 -9 -53 -11 -62 -1 -10 6 -28 16 -40 17 -22 25 -23 187
-26 92 -2 186 1 207 5 42 9 76 45 82 85 1 12 10 63 19 112 25 140 25 150 -13
170 -22 12 -69 15 -204 15 -153 0 -178 -2 -205 -19z m212 -79 c7 -13 -17 -170
-30 -191 -3 -6 -16 -10 -27 -10 -19 0 -20 4 -15 48 16 121 29 162 51 162 8 0
17 -4 21 -9z"/>
<path d="M3630 2803 c-7 -43 -14 -87 -16 -98 -3 -11 -7 -37 -10 -57 -3 -20
-11 -64 -18 -97 l-13 -61 109 0 c59 0 108 1 108 3 0 9 22 124 26 140 8 26 50
19 47 -8 -4 -40 -14 -100 -19 -117 -5 -16 5 -18 104 -18 125 0 115 -8 128 103
6 47 4 61 -11 77 -10 11 -24 20 -32 20 -7 0 -13 5 -13 12 0 6 3 8 6 5 11 -11
61 24 73 50 13 27 14 73 3 89 -18 28 -56 32 -253 34 l-206 1 -13 -78z m258
-35 c-2 -16 -11 -24 -29 -26 -23 -3 -26 0 -22 22 4 20 11 26 30 26 20 0 24 -4
21 -22z"/>
<path d="M4270 2868 c0 -7 -7 -51 -16 -98 -8 -47 -17 -100 -19 -117 -3 -18 -9
-52 -15 -75 -5 -24 -10 -53 -10 -65 l0 -23 210 0 c172 0 210 3 210 14 0 7 3
28 6 45 l7 31 -106 0 -106 0 9 30 c5 17 9 34 9 38 1 4 44 8 96 10 65 2 95 6
96 15 1 7 3 27 5 45 l4 32 -94 0 c-89 0 -94 1 -89 20 5 18 14 20 109 20 l104
0 5 28 c15 68 35 62 -201 62 -164 0 -214 -3 -214 -12z"/>
<path d="M4826 2853 c3 -16 14 -58 24 -94 l17 -67 -59 -96 c-32 -53 -58 -99
-58 -101 0 -3 48 -5 106 -5 l105 0 32 72 32 73 10 -70 10 -70 108 -3 c104 -3
108 -2 102 17 -3 11 -8 28 -10 38 -2 10 -10 47 -19 82 l-15 65 51 85 c28 47
53 90 55 94 3 4 -44 6 -103 5 l-108 -3 -27 -55 c-16 -30 -29 -48 -29 -40 -3
28 -11 75 -15 88 -3 8 -34 12 -110 12 l-105 0 6 -27z"/>
<path d="M170 2721 c0 -6 4 -13 10 -16 6 -3 7 1 4 9 -7 18 -14 21 -14 7z"/>
</g>
</svg>
